HIERARCHY
ROOT root
{
	OFFSET	0	13.1	24.9
	CHANNELS 6  Xposition Yposition Zposition Xrotation Yrotation Zrotation
	JOINT spine_1
	{
		OFFSET	0	9.99999	0
		CHANNELS 3  Xrotation Yrotation Zrotation
		JOINT spine_2
		{
			OFFSET	0	112	-10
			CHANNELS 3  Xrotation Yrotation Zrotation
			JOINT spine_3
			{
				OFFSET	0	206.5	19.3
				CHANNELS 3  Xrotation Yrotation Zrotation
				JOINT spine_4
				{
					OFFSET	0	110.4	14.6
					CHANNELS 3  Xrotation Yrotation Zrotation
					JOINT neck_1
					{
						OFFSET	0	71.8	-50.3
						CHANNELS 3  Xrotation Yrotation Zrotation
						JOINT neck_2
						{
							OFFSET	0	86.2	-25.8
							CHANNELS 3  Xrotation Yrotation Zrotation
							JOINT head_ee
							{
								OFFSET	0	179.8	-8.7
								CHANNELS 3  Xrotation Yrotation Zrotation
								End Site
								{
									OFFSET	1	0	0
								}
							}
						}
					}
					JOINT left_clavicle
					{
						OFFSET	-43.2	22.4	-70.8
						CHANNELS 3  Xrotation Yrotation Zrotation
						JOINT left_shoulder
						{
							OFFSET	-93.9	-5.79999	48.7
							CHANNELS 3  Xrotation Yrotation Zrotation
							JOINT left_elbow
							{
								OFFSET	-291.4	-30.8	15.2
								CHANNELS 3  Xrotation Yrotation Zrotation
								JOINT left_lowarm_twist
								{
									OFFSET	-110.7	-3.89999	13.6
									CHANNELS 3  Xrotation Yrotation Zrotation
									JOINT left_hand
									{
										OFFSET	-110.7	-3.89999	13.6
										CHANNELS 3  Xrotation Yrotation Zrotation
										JOINT left_ee
										{
											OFFSET	-80.8	-5.10001	12.1
											CHANNELS 3  Xrotation Yrotation Zrotation
											End Site
											{
												OFFSET	1	0	0
											}
										}
									}
								}
							}
						}
					}
					JOINT right_clavicle
					{
						OFFSET	43.2	22.4	-70.8
						CHANNELS 3  Xrotation Yrotation Zrotation
						JOINT right_shoulder
						{
							OFFSET	93.9	-5.79999	48.7
							CHANNELS 3  Xrotation Yrotation Zrotation
							JOINT right_elbow
							{
								OFFSET	291.4	-30.8	15.2
								CHANNELS 3  Xrotation Yrotation Zrotation
								JOINT right_lowarm_twist
								{
									OFFSET	110.7	-3.89999	13.6
									CHANNELS 3  Xrotation Yrotation Zrotation
									JOINT right_hand
									{
										OFFSET	110.7	-3.89999	13.6
										CHANNELS 3  Xrotation Yrotation Zrotation
										JOINT right_ee
										{
											OFFSET	80.8	-5.10001	12.1
											CHANNELS 3  Xrotation Yrotation Zrotation
											End Site
											{
												OFFSET	1	0	0
											}
										}
									}
								}
							}
						}
					}
				}
			}
		}
	}
	JOINT left_hip
	{
		OFFSET	-82.8	-127.5	0.300001
		CHANNELS 3  Xrotation Yrotation Zrotation
		JOINT left_knee
		{
			OFFSET	-28.2	-396.7	2.2
			CHANNELS 3  Xrotation Yrotation Zrotation
			JOINT left_ankle
			{
				OFFSET	-11.7	-411.3	35.4
				CHANNELS 3  Xrotation Yrotation Zrotation
				JOINT left_toes
				{
					OFFSET	0	-60	-88.6
					CHANNELS 3  Xrotation Yrotation Zrotation
					JOINT left_foot_ee
					{
						OFFSET	-22.5	-16.5	-42.2
						CHANNELS 3  Xrotation Yrotation Zrotation
						End Site
						{
							OFFSET	1	0	0
						}
					}
				}
			}
		}
	}
	JOINT right_hip
	{
		OFFSET	82.8	-127.5	0.300001
		CHANNELS 3  Xrotation Yrotation Zrotation
		JOINT right_knee
		{
			OFFSET	28.2	-396.7	2.2
			CHANNELS 3  Xrotation Yrotation Zrotation
			JOINT right_ankle
			{
				OFFSET	11.7	-411.3	35.4
				CHANNELS 3  Xrotation Yrotation Zrotation
				JOINT right_toes
				{
					OFFSET	0	-60	-88.6
					CHANNELS 3  Xrotation Yrotation Zrotation
					JOINT right_foot_ee
					{
						OFFSET	22.5	-16.5	-42.2
						CHANNELS 3  Xrotation Yrotation Zrotation
						End Site
						{
							OFFSET	1	0	0
						}
					}
				}
			}
		}
	}
}
MOTION
Frames: 9
Frame Time: 0.02
2548.39295618 741.557 -1443.26067586 86.0447558037 81.862847323 -90.9989429506 -2.69269 0.239107 2.12266 -2.69019 0.103583 2.13357 -2.68336 -0.445623 2.0891 -2.68944 -0.110175 2.13324 0.995802 18.9102 4.28991 1.75827 30.0655 6.23551 -0.0 0.0 -0.0 -1.14249 23.5841 1.16904 2.58127 -19.8519 75.6253 0.204612 -5.78782 0.0103434 58.7804 -1.66656 -6.99429 -3.61443 13.1014 -17.6206 -0.0 0.0 -0.0 10.8715 -6.90164 -20.8732 8.04814 24.2499 -77.6819 1.19091 30.5369 -0.325101 -1.74076 0.064578 -0.212905 2.59336 -23.5368 -25.1765 0.0 0.0 0.0 -13.7308 14.5038 -3.03311 -21.9589 0.267224 3.33858 29.8974 -12.6103 -4.09321 -3.11618 0.0 0.0 -0.0 0.0 -0.0 3.57066 -24.3169 3.79414 -13.589 -0.316917 -2.05646 15.5516 25.1539 2.56952 19.7898 -0.0 -0.0 0.0 0.0 0.0 
2536.80877965 745.561 -1418.10080083 104.921302566 81.4491276435 -111.055112016 -2.52005 0.364683 2.22245 -2.51732 0.22256 2.24114 -2.50527 -0.351142 2.22463 -2.51218 0.00451145 2.25215 -0.778506 19.4996 5.90327 -0.137706 30.345 8.37225 -0.0 0.0 -0.0 -1.47899 22.9356 0.61062 -0.65686 -18.0236 76.2692 0.19327 -5.46899 0.00923101 58.1373 -1.61093 -6.93346 -4.0359 13.2852 -20.3297 -0.0 0.0 -0.0 10.9975 -7.05603 -21.1043 9.03759 24.4475 -78.172 1.23969 31.5531 -0.350262 -0.227109 0.00805739 -0.0278849 3.08631 -22.3065 -28.1648 0.0 0.0 0.0 -8.54701 14.1897 -3.54336 -17.7275 0.315766 2.69128 29.3195 -12.7301 -4.03191 -4.8707 0.0 0.0 -0.0 0.0 -0.0 2.41221 -24.1573 5.07417 -12.6223 -0.310579 -1.90826 16.2944 25.486 2.69217 18.4248 -0.0 -0.0 0.0 0.0 0.0 
2531.74743516 745.696 -1398.26686673 124.862501968 81.1880237444 -131.531480016 -2.18352 0.426223 2.29128 -2.18064 0.279599 2.31374 -2.16597 -0.300585 2.31111 -2.17342 0.0680807 2.32957 -1.91716 19.2107 6.01593 -1.38313 30.0739 8.69752 -0.0 0.0 -0.0 -1.50597 22.9007 0.567897 -3.19843 -16.6798 75.677 0.20237 -5.7248 0.0101185 57.9445 -1.59439 -6.9151 -4.09211 13.3495 -20.6699 -0.0 0.0 -0.0 11.0434 -8.07618 -21.0748 10.0258 24.4896 -78.684 1.42435 35.2041 -0.451909 1.16191 -0.0394871 0.143141 3.28406 -21.6089 -29.3655 0.0 0.0 0.0 -5.45507 15.029 -3.75558 -20.4641 0.289832 3.11034 27.407 -13.0887 -3.82272 -5.06507 0.0 0.0 -0.0 0.0 -0.0 1.96725 -24.2769 5.49767 -11.0448 -0.294872 -1.66674 16.8017 25.2165 2.76042 16.6277 -0.0 -0.0 0.0 0.0 0.0 
2525.21558275 745.596 -1383.07199875 134.668736283 79.8689369246 -140.84047866 -2.0943 0.44792 2.21535 -2.09163 0.30608 2.23935 -2.07651 -0.253009 2.24596 -2.08354 0.10478 2.25773 -2.63352 19.034 6.37492 -2.16538 29.6803 9.20157 -0.0 0.0 -0.0 -2.08074 22.5691 -0.285686 -4.93749 -15.8879 76.4776 0.21438 -6.06211 0.0113517 58.3249 -1.62708 -6.95126 -4.37186 15.0344 -21.4965 -0.0 0.0 -0.0 11.2174 -8.18834 -21.4009 10.8341 24.4389 -79.2492 1.57017 37.8736 -0.538747 2.751 -0.0887717 0.340127 3.63759 -18.1889 -31.0885 0.0 0.0 0.0 -7.19037 16.0046 -4.63339 -16.9879 0.319337 2.57787 27.0942 -13.7681 -3.80252 -5.61935 0.0 0.0 -0.0 0.0 -0.0 2.12895 -24.8258 5.51116 -11.7355 -0.302568 -1.77245 17.8685 27.268 2.98915 17.2589 -0.0 -0.0 0.0 0.0 0.0 
2502.48985098 746.422 -1380.44210412 122.686445352 83.0241067139 -126.927915396 -2.02185 0.458054 2.17874 -2.01927 0.318522 2.20345 -2.00399 -0.229319 2.21451 -2.01082 0.12321 2.22293 -4.7358 18.0746 4.40338 -4.48979 29.9885 7.52579 -0.0 0.0 -0.0 -2.11527 23.28 -0.211869 -9.61561 -14.2911 76.0562 0.238823 -6.74723 0.0140783 57.8094 -1.58283 -6.90221 -4.12762 15.0015 -19.8834 -0.0 0.0 -0.0 11.0805 -7.27531 -21.2428 13.4225 24.6573 -81.3384 1.92811 43.6807 -0.772828 5.04608 -0.15026 0.626833 3.42059 -14.6383 -28.5864 0.0 0.0 0.0 0.205854 17.0796 -7.54778 -6.74764 0.218434 1.01193 17.9386 -13.2969 -2.64018 -10.6297 0.0 0.0 -0.0 0.0 -0.0 0.171029 -26.175 3.5461 -9.26262 -0.269135 -1.3945 17.7479 29.2359 3.04445 14.1334 -0.0 -0.0 0.0 0.0 0.0 
2502.44406741 746.422 -1380.58864012 122.492533498 83.0392577354 -126.732560536 -2.02185 0.458054 2.17874 -2.01927 0.318522 2.20345 -2.00399 -0.229319 2.21451 -2.01082 0.12321 2.22293 -4.7358 18.0746 4.40338 -4.48979 29.9885 7.52579 -0.0 0.0 -0.0 -2.11527 23.28 -0.211869 -9.61561 -14.2911 76.0562 0.238823 -6.74723 0.0140783 57.8094 -1.58283 -6.90221 -4.12762 15.0015 -19.8834 -0.0 0.0 -0.0 11.0805 -7.27531 -21.2428 13.4225 24.6573 -81.3384 1.92811 43.6807 -0.772828 5.04608 -0.15026 0.626833 3.42059 -14.6383 -28.5864 0.0 0.0 0.0 0.205854 17.0796 -7.54778 -6.74764 0.218434 1.01193 17.9386 -13.2969 -2.64018 -10.6297 0.0 0.0 -0.0 0.0 -0.0 0.171029 -26.175 3.5461 -9.26262 -0.269135 -1.3945 17.7479 29.2359 3.04445 14.1334 -0.0 -0.0 0.0 0.0 0.0 
2502.44958643 746.422 -1380.5709624 122.51596978 83.0374343371 -126.756170886 -2.02185 0.458054 2.17874 -2.01927 0.318522 2.20345 -2.00399 -0.229319 2.21451 -2.01082 0.12321 2.22293 -4.7358 18.0746 4.40338 -4.48979 29.9885 7.52579 -0.0 0.0 -0.0 -2.11527 23.28 -0.211869 -9.61561 -14.2911 76.0562 0.238823 -6.74723 0.0140783 57.8094 -1.58283 -6.90221 -4.12762 15.0015 -19.8834 -0.0 0.0 -0.0 11.0805 -7.27531 -21.2428 13.4225 24.6573 -81.3384 1.92811 43.6807 -0.772828 5.04608 -0.15026 0.626833 3.42059 -14.6383 -28.5864 0.0 0.0 0.0 0.205854 17.0796 -7.54778 -6.74764 0.218434 1.01193 17.9386 -13.2969 -2.64018 -10.6297 0.0 0.0 -0.0 0.0 -0.0 0.171029 -26.175 3.5461 -9.26262 -0.269135 -1.3945 17.7479 29.2359 3.04445 14.1334 -0.0 -0.0 0.0 0.0 0.0 
2503.04124671 746.422 -1378.69676302 124.933645862 82.8374536989 -129.192322073 -2.02185 0.458054 2.17874 -2.01927 0.318522 2.20345 -2.00399 -0.229319 2.21451 -2.01082 0.12321 2.22293 -4.7358 18.0746 4.40338 -4.48979 29.9885 7.52579 -0.0 0.0 -0.0 -2.11527 23.28 -0.211869 -9.61561 -14.2911 76.0562 0.238823 -6.74723 0.0140783 57.8094 -1.58283 -6.90221 -4.12762 15.0015 -19.8834 -0.0 0.0 -0.0 11.0805 -7.27531 -21.2428 13.4225 24.6573 -81.3384 1.92811 43.6807 -0.772828 5.04608 -0.15026 0.626833 3.42059 -14.6383 -28.5864 0.0 0.0 0.0 0.205854 17.0796 -7.54778 -6.74764 0.218434 1.01193 17.9386 -13.2969 -2.64018 -10.6297 0.0 0.0 -0.0 0.0 -0.0 0.171029 -26.175 3.5461 -9.26262 -0.269135 -1.3945 17.7479 29.2359 3.04445 14.1334 -0.0 -0.0 0.0 0.0 0.0 
2497.42813869 747.816 -1371.6533366 126.224939721 84.3909933974 -129.48852743 -2.085 0.367011 2.1029 -2.08257 0.232485 2.12198 -2.07121 -0.29538 2.11415 -2.07745 0.0421383 2.13426 -3.16958 17.8165 1.69199 -2.75625 31.2093 4.31175 -0.0 0.0 -0.0 -1.84385 23.283 0.162097 -10.6001 -14.7903 75.951 0.25367 -7.16244 0.0158761 57.7261 -1.57572 -6.89424 -3.81397 15.481 -17.5247 -0.0 0.0 -0.0 10.8501 -6.67482 -20.8558 13.8759 24.6238 -80.9612 2.03509 45.2266 -0.847756 4.58973 -0.13895 0.569635 3.27412 -13.5258 -27.2105 0.0 0.0 0.0 2.14639 17.4251 -7.79873 -4.61872 0.162421 0.690035 14.5901 -13.0261 -2.17756 -12.3306 0.0 0.0 -0.0 0.0 -0.0 0.247678 -25.53 3.09559 -6.97497 -0.223707 -1.04642 17.3417 30.5645 3.03414 11.8506 -0.0 -0.0 0.0 0.0 0.0 
